<?xml version="1.0" standalone="no"?>
<!DOCTYPE svg PUBLIC "-//W3C//DTD SVG 20010904//EN"
 "http://www.w3.org/TR/2001/REC-SVG-20010904/DTD/svg10.dtd">
<svg version="1.0" xmlns="http://www.w3.org/2000/svg"
 width="200.000000pt" height="450.000000pt" viewBox="0 0 600.000000 450.000000"
 preserveAspectRatio="xMidYMid meet">

<g transform="translate(0.000000,450.000000) scale(0.100000,-0.100000)"
fill="#000000" stroke="none">
<path d="M4238 4051 c-18 -16 -46 -52 -63 -80 -29 -49 -31 -50 -74 -48 -41 2
-47 -1 -76 -39 -42 -54 -76 -162 -82 -260 -6 -92 4 -120 46 -135 28 -10 28
-11 33 -110 7 -136 13 -143 154 -191 60 -20 117 -37 126 -37 46 -2 140 123
184 244 9 28 18 51 19 52 1 1 17 -2 36 -7 28 -8 40 -19 56 -52 43 -90 45 -101
29 -146 -12 -34 -13 -47 -4 -62 11 -17 4 -36 -45 -132 -51 -102 -151 -247
-169 -248 -5 0 -29 15 -55 33 -61 43 -104 62 -175 78 -56 12 -58 13 -73 60
-21 61 -79 128 -141 159 -55 28 -191 40 -242 22 -25 -8 -36 -4 -98 37 -154
103 -320 117 -503 42 -38 -16 -91 -44 -116 -61 l-46 -31 -34 21 c-76 47 -192
56 -271 21 l-47 -21 -34 26 c-99 75 -240 83 -369 20 -39 -20 -89 -53 -110 -74
-30 -30 -52 -41 -96 -50 -70 -14 -146 -51 -198 -98 -46 -42 -90 -125 -90 -170
0 -24 -9 -41 -32 -63 -18 -17 -38 -31 -44 -31 -17 0 -97 89 -148 166 -63 95
-119 224 -104 241 8 9 7 26 -2 58 -11 40 -10 51 10 104 18 50 27 62 54 70 65
20 64 21 99 -59 58 -133 123 -210 176 -210 28 0 187 50 229 72 33 17 56 104
50 189 -5 68 -5 68 23 74 43 10 54 31 53 104 -3 109 -60 280 -108 320 -18 15
-51 18 -81 8 -16 -5 -25 3 -50 44 -39 66 -88 109 -123 109 -15 -1 -72 -16
-127 -34 -83 -27 -104 -38 -121 -64 -29 -43 -37 -120 -24 -231 10 -77 9 -95
-2 -102 -24 -16 -48 -10 -48 12 0 36 -19 59 -48 59 -16 0 -33 -5 -40 -12 -10
-10 -16 -7 -28 10 -20 30 -58 28 -83 -4 -19 -25 -20 -25 -31 -5 -15 29 -56 27
-76 -4 -12 -18 -15 -42 -13 -91 4 -66 3 -68 -23 -75 -25 -6 -28 -4 -39 29 -21
66 -83 176 -121 214 -28 28 -46 38 -69 38 -40 0 -199 -48 -220 -66 -24 -21
-39 -83 -39 -156 0 -63 -1 -65 -32 -79 -42 -18 -51 -54 -38 -146 11 -84 38
-166 75 -229 30 -51 49 -63 90 -57 28 4 32 0 59 -51 15 -31 46 -72 68 -92 47
-42 53 -42 191 1 76 24 90 32 104 59 21 41 28 152 15 246 -10 71 -7 89 18 90
10 0 60 -105 70 -149 8 -29 18 -45 31 -48 10 -3 19 -9 19 -14 0 -21 90 -199
132 -264 26 -39 76 -100 112 -137 l66 -67 -22 -70 c-22 -69 -23 -70 -63 -77
-138 -23 -231 -108 -255 -234 -19 -101 18 -160 100 -160 43 0 71 32 104 118
28 72 62 112 97 112 17 0 16 -4 -7 -48 -72 -140 -43 -326 70 -435 41 -40 44
-46 48 -107 4 -74 38 -157 86 -211 43 -50 140 -99 207 -106 41 -4 56 -10 60
-24 11 -33 94 -110 147 -134 29 -13 76 -27 105 -31 46 -5 157 7 198 22 13 5
15 -27 15 -265 0 -231 -2 -275 -16 -296 -10 -16 -14 -37 -11 -61 4 -25 -2 -53
-20 -92 -14 -32 -27 -80 -30 -108 l-6 -52 49 -12 c27 -6 135 -14 239 -17 179
-5 191 -4 214 14 23 19 24 23 13 60 -24 79 -103 145 -224 186 -13 5 -18 17
-18 40 0 19 -7 40 -15 47 -13 10 -15 52 -15 261 l0 248 32 -10 c50 -14 187
-11 242 6 55 17 119 52 165 91 24 20 43 26 93 28 35 2 89 12 120 23 l57 20 43
-44 c46 -47 138 -98 194 -109 l34 -6 0 -248 c0 -211 -2 -249 -15 -254 -11 -4
-15 -20 -15 -57 0 -32 -9 -76 -25 -114 -13 -34 -27 -80 -31 -102 -5 -34 -3
-43 13 -52 52 -27 440 -44 484 -21 46 25 1 138 -77 192 -21 15 -65 37 -96 49
-57 21 -58 23 -58 61 0 25 -5 41 -15 44 -13 5 -15 43 -15 254 l0 248 34 6 c19
4 60 20 92 36 l58 29 60 -21 c122 -41 308 -11 408 65 54 41 107 119 114 168 8
46 7 46 81 65 32 8 77 26 100 39 58 35 140 130 162 190 46 122 52 418 13 578
-35 140 -94 193 -246 222 -44 9 -81 17 -83 19 -2 2 -8 28 -12 57 -9 54 -9 54
33 99 85 92 180 248 235 387 7 17 21 33 31 36 12 3 21 22 30 58 7 30 18 61 25
69 7 8 18 32 25 53 10 32 15 37 33 31 12 -4 23 -7 23 -8 1 0 -3 -43 -9 -94
-14 -118 0 -214 35 -247 13 -13 65 -33 125 -50 l101 -28 35 22 c34 21 81 84
108 144 11 23 17 27 40 22 15 -4 36 -2 46 4 47 25 114 205 115 311 2 83 -6
106 -41 118 -27 9 -28 13 -34 91 -7 84 -25 134 -55 149 -9 5 -60 22 -112 37
-92 26 -96 26 -127 9 -41 -22 -93 -97 -138 -199 -19 -44 -37 -79 -40 -79 -3 1
-19 4 -35 8 -29 5 -30 7 -30 61 0 76 -21 125 -54 125 -16 0 -32 -9 -42 -26
-15 -22 -19 -23 -26 -10 -23 42 -79 40 -93 -3 -5 -17 -10 -18 -35 -8 -24 9
-32 8 -49 -8 -12 -10 -21 -24 -21 -31 0 -7 -8 -10 -21 -7 -18 5 -20 11 -16 42
23 145 15 251 -21 300 -12 17 -48 33 -127 57 -61 19 -118 34 -127 34 -10 0
-32 -13 -50 -29z m90 -57 c27 -77 1 -297 -54 -464 -52 -156 -138 -289 -177
-274 -23 8 -37 66 -37 146 l0 68 30 -6 c25 -5 35 -1 59 25 46 49 100 216 101
307 0 46 -19 92 -41 99 -10 4 -19 12 -19 19 0 17 65 102 88 115 26 15 36 8 50
-35z m181 -29 c34 -33 32 -215 -3 -366 -31 -130 -81 -258 -133 -337 -48 -72
-56 -75 -141 -50 l-71 21 28 36 c60 76 117 214 159 381 21 85 26 130 26 236
l1 130 60 -18 c33 -11 66 -25 74 -33z m-2746 -34 c59 -66 64 -80 32 -105 -35
-28 -42 -86 -21 -184 18 -87 71 -207 100 -228 11 -8 33 -14 48 -14 35 0 43
-28 34 -111 -11 -106 -36 -123 -91 -65 -99 105 -202 444 -194 634 6 119 32
139 92 73z m-131 -65 c-10 -197 92 -539 198 -660 l30 -34 -65 -22 c-36 -12
-76 -19 -89 -16 -90 22 -227 400 -229 632 -1 115 10 136 86 161 34 12 65 22
68 22 3 1 3 -37 1 -83z m2455 -68 c-6 -86 -32 -176 -68 -234 -11 -19 -25 -32
-30 -28 -41 25 42 344 89 344 12 0 14 -14 9 -82z m109 55 c22 -23 13 -130 -21
-227 -31 -89 -55 -122 -86 -118 -46 5 -47 9 -18 69 37 75 59 163 59 235 0 55
1 58 24 58 14 0 32 -8 42 -17z m-2228 -79 c52 -91 89 -304 52 -304 -14 0 -68
116 -84 181 -20 80 -22 173 -3 167 6 -3 22 -22 35 -44z m-88 -17 c0 -67 22
-154 61 -236 16 -35 28 -66 26 -67 -2 -2 -18 -7 -35 -10 -27 -6 -33 -2 -52 27
-31 52 -59 132 -71 208 -14 83 -7 118 24 124 47 9 47 9 47 -46z m3349 1 c28
-80 2 -301 -55 -474 -49 -148 -133 -279 -173 -272 -26 5 -43 92 -36 187 9 135
6 131 72 114 53 -13 58 -13 81 4 33 25 56 93 47 139 -6 37 -18 45 -92 64 l-42
10 13 38 c42 117 127 239 159 226 9 -3 20 -19 26 -36z m163 -29 c69 -81 -10
-497 -132 -691 -45 -71 -64 -80 -129 -63 -29 7 -55 16 -58 18 -2 3 12 27 31
55 105 146 184 436 174 637 l-5 93 51 -15 c28 -8 59 -23 68 -34z m-4522 -56
c31 -37 110 -189 110 -211 0 -6 -25 -18 -55 -27 -60 -17 -75 -35 -75 -90 0
-41 18 -81 49 -109 19 -17 24 -18 80 -4 71 18 69 22 77 -122 6 -99 -7 -169
-34 -178 -22 -7 -89 74 -126 151 -37 77 -87 234 -107 332 -15 77 -16 232 -1
268 16 38 44 34 82 -10z m3898 10 c6 -10 13 -33 17 -50 6 -28 4 -33 -13 -33
-21 0 -32 25 -32 73 0 31 15 36 28 10z m112 -54 c0 -32 -2 -59 -4 -59 -35 0
-47 49 -26 105 16 41 30 19 30 -46z m-4144 -51 c2 -214 81 -469 190 -620 l35
-46 -58 -17 c-74 -22 -94 -12 -146 73 -91 151 -150 364 -151 544 -1 99 2 120
17 135 15 15 72 39 102 42 6 1 11 -42 11 -111z m3944 62 c11 -21 4 -25 -24
-14 -9 3 -16 12 -16 20 0 21 28 17 40 -6z m-3430 -60 c0 -39 -4 -52 -20 -60
-19 -10 -20 -8 -20 34 0 54 8 76 26 76 10 0 14 -14 14 -50z m-111 18 c4 -13
11 -39 15 -59 5 -29 3 -38 -10 -43 -24 -9 -34 11 -34 72 0 54 14 69 29 30z
m211 -13 c0 -14 -8 -29 -21 -35 -28 -16 -34 -6 -19 30 15 36 40 40 40 5z
m3515 -53 l260 -68 -1 -42 c0 -24 -8 -50 -18 -61 -17 -18 -21 -18 -197 27
-169 43 -180 47 -185 71 -7 39 -44 109 -60 115 -37 14 -84 -28 -84 -74 0 -17
-5 -21 -27 -18 -31 3 -32 16 -12 91 9 35 13 38 37 32 15 -3 144 -36 287 -73z
m-3395 -11 c0 -10 7 -37 14 -59 17 -46 16 -47 -36 -57 -33 -6 -37 -4 -50 21
-7 16 -25 33 -40 38 -36 13 -65 -12 -75 -68 l-9 -41 -149 -41 c-83 -22 -162
-44 -177 -47 -24 -6 -30 -3 -43 24 -9 16 -15 44 -13 62 l3 31 275 77 c151 43
281 78 288 78 6 1 12 -7 12 -18z m3220 -84 c6 -35 15 -69 20 -76 9 -16 30 -6
30 15 0 17 -5 17 59 -2 50 -14 52 -17 46 -42 -3 -15 -12 -36 -20 -48 -13 -20
-15 -20 -78 -5 -72 16 -72 17 -108 120 -22 63 -24 112 -6 130 19 19 43 -18 57
-92z m800 -6 c0 -77 -28 -184 -65 -247 -28 -48 -27 -47 -48 -38 -12 4 -9 20
15 90 15 47 36 128 45 179 14 81 18 92 35 87 15 -4 18 -15 18 -71z m-4126 -17
c11 -30 6 -75 -15 -125 -16 -37 -28 -51 -48 -55 -14 -3 -42 -10 -61 -15 -48
-12 -48 -13 -65 21 -19 38 -19 39 8 49 46 18 90 24 82 12 -10 -18 2 -41 18
-35 9 3 20 32 26 67 7 34 14 70 17 80 7 21 30 22 38 1z m-785 -64 c9 -57 53
-210 78 -277 3 -8 -3 -13 -16 -13 -28 0 -55 45 -86 143 -37 116 -34 211 6 216
3 1 11 -31 18 -69z m4184 -111 c39 -10 40 -11 31 -46 -8 -28 -37 -30 -94 -7
-39 16 -46 27 -34 58 6 16 11 16 97 -5z m-1302 -29 c65 -20 169 -74 169 -88 0
-4 -15 -19 -34 -34 l-35 -28 -61 16 c-75 19 -135 10 -135 -21 0 -18 7 -20 66
-21 84 -1 157 -38 208 -106 19 -27 41 -48 48 -48 41 0 10 78 -49 124 -36 28
-33 37 29 73 54 31 176 44 236 24 84 -28 146 -99 165 -188 8 -37 8 -37 77 -49
165 -27 295 -142 306 -269 l4 -40 -125 3 c-223 6 -531 -32 -619 -78 -42 -21
-115 -97 -126 -129 -11 -36 -35 -20 -59 41 -27 66 -86 149 -126 178 -26 19
-29 26 -29 79 1 143 -108 260 -261 278 l-49 6 -16 56 c-9 31 -23 66 -32 79 -8
13 -12 30 -9 37 7 18 158 92 226 109 78 21 158 19 231 -4z m-2118 -32 c8 -30
3 -35 -59 -55 -48 -15 -57 -15 -65 -3 -20 32 -6 55 41 67 65 17 77 15 83 -9z
m1142 -2 c28 -12 64 -35 81 -49 l32 -27 53 25 c40 18 71 25 117 25 70 0 112
-14 160 -55 42 -35 60 -70 75 -148 l13 -62 65 -6 c160 -16 242 -99 240 -244
l-1 -73 39 -25 c54 -36 153 -192 133 -211 -3 -3 -33 -6 -67 -6 -60 0 -63 1
-75 30 -20 49 -111 124 -171 143 -199 62 -695 68 -902 10 -41 -11 -73 -29
-107 -60 l-48 -43 -162 20 c-89 11 -218 23 -286 26 l-124 7 6 26 c3 14 19 53
34 86 31 65 119 159 127 137 13 -34 73 -99 111 -120 116 -64 298 12 332 139
15 53 5 99 -21 99 -19 0 -23 -8 -20 -46 8 -92 -131 -190 -230 -164 -146 39
-175 233 -51 341 20 18 61 44 92 58 47 22 69 26 150 26 78 0 95 3 95 15 0 8
-10 19 -23 25 -29 13 -24 24 24 57 96 68 221 86 309 44z m2255 -48 c0 -17 -79
-178 -115 -234 -20 -32 -62 -90 -92 -127 l-55 -68 -22 32 -22 32 68 91 c57 76
141 225 161 287 5 14 11 15 41 5 20 -6 36 -14 36 -18z m-3371 -105 c44 -102
110 -203 182 -278 l58 -61 -25 -29 -24 -30 -73 76 c-76 81 -152 199 -193 300
-28 68 -26 85 8 92 13 2 25 5 28 6 3 0 21 -34 39 -76z m3101 -523 c180 -17
244 -40 289 -105 72 -106 81 -507 14 -657 -30 -68 -101 -139 -170 -170 -44
-20 -67 -22 -305 -26 -165 -2 -276 0 -310 7 -135 28 -260 123 -326 248 -36 68
-72 195 -72 254 0 30 -6 42 -25 55 -37 24 -96 28 -157 10 l-56 -16 -11 -80
c-37 -252 -177 -426 -382 -475 -48 -11 -127 -15 -316 -15 -234 0 -256 2 -310
22 -76 28 -152 104 -180 178 -44 117 -52 366 -17 533 30 145 79 187 252 212
276 40 679 19 808 -41 44 -21 90 -69 110 -114 15 -34 21 -38 65 -44 26 -4 90
-4 142 0 l95 7 17 36 c23 51 71 100 119 122 121 53 482 82 726 59z m-2550
-125 c190 -23 189 -22 183 -45 -3 -11 -9 -23 -14 -25 -4 -3 -47 -1 -96 5 -48
5 -170 14 -271 21 -274 16 -308 2 -367 -151 -29 -75 -40 -86 -79 -76 -46 11
-40 115 11 189 28 40 93 84 146 98 45 12 339 2 487 -16z m13 -110 c77 -8 140
-15 142 -17 3 -2 -1 -49 -6 -103 -12 -112 2 -321 25 -399 32 -105 104 -187
205 -235 55 -26 59 -26 321 -29 172 -2 286 1 324 8 170 33 308 145 386 312 32
69 60 167 60 209 0 47 10 58 56 65 65 9 94 -1 94 -34 1 -60 32 -172 71 -250
75 -154 221 -267 374 -292 33 -5 151 -10 262 -10 l202 0 -9 -31 c-41 -142
-184 -227 -363 -217 -58 4 -96 12 -128 28 l-45 22 -50 -30 c-109 -67 -236 -78
-359 -32 -45 17 -76 39 -122 86 l-61 62 -64 -25 c-44 -18 -83 -26 -133 -27
-67 -1 -73 -4 -125 -45 -82 -65 -130 -83 -236 -89 -104 -5 -160 9 -238 58
l-47 30 -58 -20 c-173 -58 -312 -22 -395 104 -35 53 -36 53 -95 59 -152 13
-261 139 -261 300 l0 62 -51 44 c-72 62 -103 131 -102 231 0 80 15 127 60 192
l26 38 101 -6 c55 -3 163 -12 239 -19z m582 -1072 l35 -17 0 -258 0 -258 -40
0 -40 0 0 275 c0 151 2 275 5 275 2 0 20 -8 40 -17z m1165 -288 l0 -245 -35 0
-35 0 0 245 0 245 35 0 35 0 0 -245z m-1102 -307 c3 -24 -1 -28 -32 -34 -20
-3 -52 -3 -71 0 -28 6 -35 12 -35 30 0 33 8 37 75 34 57 -3 60 -4 63 -30z
m1130 1 c3 -28 -15 -39 -70 -39 -41 0 -58 10 -58 34 0 33 8 37 70 34 51 -3 55
-5 58 -29z m-1091 -98 c-8 -39 19 -52 33 -16 9 25 45 36 38 13 -2 -7 -10 -35
-17 -62 l-14 -49 -91 7 c-182 14 -181 13 -145 91 l21 45 90 0 91 0 -6 -29z
m1139 2 c-1 -35 16 -43 29 -14 11 23 43 24 36 0 -2 -8 -9 -33 -15 -56 -10 -42
-12 -43 -51 -43 -53 0 -203 18 -215 25 -9 6 14 78 33 103 6 8 39 12 97 12 l88
0 -2 -27z m-967 -69 c11 -15 18 -30 15 -35 -3 -5 -27 -9 -55 -9 -55 0 -60 9
-34 61 13 24 19 28 35 19 10 -5 28 -22 39 -36z m1118 14 c48 -47 44 -60 -19
-56 -57 3 -59 7 -38 64 12 31 18 30 57 -8z m-1235 -92 c87 0 158 -5 158 -10 0
-10 -383 -1 -417 9 -45 14 -22 21 40 12 34 -5 133 -10 219 -11z m1010 3 c73
-6 166 -8 206 -4 53 5 72 4 72 -5 0 -9 -46 -11 -192 -7 -197 6 -248 12 -248
29 0 6 7 8 15 4 8 -3 75 -10 147 -17z"/>
<path d="M3797 2724 c-56 -17 -137 -90 -137 -122 0 -34 26 -26 73 22 80 83
187 87 297 11 40 -28 60 -27 60 3 0 36 -137 102 -210 101 -19 0 -56 -7 -83
-15z"/>
<path d="M2479 2906 c-41 -15 -85 -47 -107 -77 -13 -18 -13 -23 1 -36 13 -13
19 -11 54 21 45 40 80 56 126 56 58 0 106 -20 153 -65 46 -43 74 -49 74 -16 0
27 -72 90 -128 111 -60 23 -121 25 -173 6z"/>
<path d="M4010 2379 c-183 -21 -229 -43 -272 -128 -24 -46 -28 -67 -28 -136 0
-186 85 -355 214 -423 l51 -27 291 0 290 0 36 24 c49 34 76 78 89 147 16 79
15 367 -1 424 -16 60 -63 103 -129 118 -60 14 -423 14 -541 1z m568 -62 c19
-10 39 -32 46 -50 32 -78 25 -409 -10 -482 -9 -19 -31 -44 -49 -55 -30 -19
-49 -20 -296 -20 -244 0 -267 2 -309 21 -83 38 -143 115 -180 234 -32 101 -31
207 1 265 13 24 38 52 55 62 52 30 232 47 484 45 196 -2 229 -4 258 -20z"/>
<path d="M4194 2110 c-88 -44 -122 -113 -74 -152 31 -25 51 -23 94 11 64 51
110 50 170 -3 36 -32 79 -34 100 -4 9 12 16 30 16 40 0 26 -60 89 -105 109
-55 26 -148 25 -201 -1z"/>
<path d="M2435 2373 c-62 -8 -125 -35 -149 -64 -39 -46 -49 -121 -43 -319 3
-96 10 -193 17 -215 17 -54 75 -110 130 -125 33 -9 111 -10 290 -5 210 6 253
10 300 28 111 41 201 168 234 329 19 94 20 128 2 194 -31 115 -83 149 -264
170 -115 12 -441 17 -517 7z m575 -63 c83 -15 108 -29 135 -74 33 -56 40 -134
22 -223 -30 -140 -98 -242 -190 -287 -52 -26 -56 -26 -319 -29 -255 -2 -267
-1 -295 19 -15 11 -37 38 -48 60 -18 35 -20 59 -20 239 0 260 8 279 128 305
53 11 513 4 587 -10z"/>
<path d="M2635 2111 c-50 -22 -105 -76 -105 -102 0 -23 42 -69 63 -69 7 0 31
13 53 30 68 51 126 48 178 -9 19 -21 61 -28 82 -13 22 15 34 50 25 75 -11 29
-65 75 -108 94 -46 19 -140 16 -188 -6z"/>
<path d="M1761 2019 c-27 -77 -2 -162 59 -204 47 -32 102 -39 108 -12 2 10 -4
19 -15 23 -90 27 -118 69 -109 160 6 59 5 64 -13 64 -12 0 -23 -11 -30 -31z"/>
<path d="M3352 1638 c-7 -7 -12 -21 -12 -32 0 -34 38 -101 69 -119 38 -23 108
-22 147 2 37 23 66 80 62 124 -3 28 -7 32 -33 32 -24 0 -31 -5 -38 -30 -20
-65 -39 -82 -81 -71 -27 7 -39 26 -50 79 -5 20 -12 27 -29 27 -13 0 -28 -5
-35 -12z"/>
<path d="M5190 1984 c-52 -9 -169 -56 -174 -70 -7 -18 13 -31 154 -98 143 -67
173 -73 210 -36 43 43 15 151 -47 184 -32 16 -105 26 -143 20z m92 -44 c50
-14 80 -54 76 -99 -5 -54 -35 -52 -168 10 -110 52 -111 53 -85 66 24 13 89 29
125 32 8 0 32 -4 52 -9z"/>
<path d="M1060 1785 c-104 -29 -180 -103 -180 -176 0 -59 40 -87 108 -74 49 9
274 227 255 246 -19 19 -121 21 -183 4z m27 -121 c-87 -86 -100 -95 -130 -92
-28 3 -32 7 -35 35 -2 23 5 40 29 68 48 54 114 82 199 84 l35 0 -98 -95z"/>
<path d="M4958 1603 c-36 -6 -35 -19 6 -101 69 -135 111 -172 194 -172 46 0
58 4 83 29 49 49 34 128 -34 188 -58 51 -149 71 -249 56z m197 -67 c65 -38 95
-115 58 -149 -38 -33 -98 -25 -140 19 -29 32 -93 141 -93 160 0 17 134 -7 175
-30z"/>
<path d="M1331 1453 c-72 -72 -116 -149 -127 -220 -6 -38 -3 -45 24 -73 98
-98 202 39 202 268 0 115 -7 117 -99 25z m44 -168 c-19 -65 -58 -115 -91 -115
-72 0 -42 129 55 233 l46 50 3 -57 c2 -32 -4 -81 -13 -111z"/>
</g>
</svg>
